<?xml version="1.0" encoding="UTF-8" standalone="no"?>
<!DOCTYPE svg PUBLIC "-//W3C//DTD SVG 1.1//EN" "http://www.w3.org/Graphics/SVG/1.1/DTD/svg11.dtd">
<svg width="100%" height="100%" viewBox="0 0 40 41" version="1.1" xmlns="http://www.w3.org/2000/svg" xmlns:xlink="http://www.w3.org/1999/xlink" xml:space="preserve" style="fill-rule:evenodd;clip-rule:evenodd;stroke-linejoin:round;stroke-miterlimit:2;">
    <g transform="matrix(1,0,0,1,0,-635)">
        <g id="pluginIcon" transform="matrix(0.154082,0,0,0.154082,-39.7746,553.645)">
            <rect x="258.139" y="529.264" width="259.602" height="259.602" style="fill:none;"/>
            <g transform="matrix(2.73005,0,0,1.64361,-2042.45,-1814.12)">
                <path d="M933.026,1459.59C933.026,1452.71 931.38,1446.11 928.452,1441.25C925.524,1436.38 921.552,1433.65 917.411,1433.65L863.059,1433.65C858.918,1433.65 854.946,1436.38 852.018,1441.25C849.089,1446.11 847.444,1452.71 847.444,1459.59L847.444,1549.87C847.444,1556.74 849.089,1563.34 852.018,1568.2C854.946,1573.07 858.918,1575.8 863.059,1575.8L917.411,1575.8C921.552,1575.8 925.524,1573.07 928.452,1568.2C931.38,1563.34 933.026,1556.74 933.026,1549.87L933.026,1459.59Z" style="fill:rgb(255,226,0);"/>
            </g>
            <g>
                <g transform="matrix(1.1753,0,0,1.1753,-2373.35,-705.694)">
                    <path d="M2305.47,1162.55C2301.46,1169.92 2299.42,1176.26 2299.76,1181.69L2299.79,1182.25L2299.79,1182.58C2299.79,1191.58 2305.75,1199.21 2313.94,1201.71C2319.15,1203.31 2322.09,1208.84 2320.49,1214.04C2318.89,1219.25 2313.37,1222.19 2308.16,1220.59C2292.01,1215.64 2280.22,1200.68 2280.05,1182.96C2279.48,1173.77 2282.51,1162.59 2289.97,1149.64C2299.68,1132.81 2317.2,1112.21 2342.91,1087.92L2349.69,1081.51L2356.47,1087.92C2365.94,1096.87 2374.3,1105.32 2381.56,1113.27L2377.05,1117.82C2375.45,1119.64 2373.85,1121.45 2372.25,1123.26L2368.41,1128.14C2362.9,1122.01 2356.65,1115.57 2349.69,1108.78C2331.89,1126.12 2318.77,1141.24 2310.32,1154.24L2310.25,1154.34L2307.08,1159.51L2305.47,1162.55Z" style="fill:rgb(25,38,96);"/>
                </g>
                <g transform="matrix(1.32506,0,0,1.32506,-1454.28,-263.022)">
                    <circle cx="1446.76" cy="641.855" r="10.443" style="fill:url(#_Linear1);"/>
                </g>
                <g transform="matrix(1.23753,0,0,1.23753,-453.191,146.443)">
                    <path d="M670.523,469.206C670.306,462.01 668.652,455.121 666.108,448.66C663.267,441.449 659.386,434.696 654.275,428.921C649.591,423.628 644.081,419.048 637.927,415.511L639.455,412.62C641.3,409.42 643.473,406.073 645.984,402.583C653.557,406.375 660.497,411.356 666.533,417.243C669.985,420.609 673.142,424.28 675.93,428.215C677.86,420.993 680.315,413.999 683.311,407.294C683.327,407.254 683.344,407.214 683.362,407.175C690.84,390.471 701.663,375.568 716.018,363.421C719.967,360.078 725.888,360.571 729.23,364.521C732.573,368.471 732.079,374.391 728.13,377.733C721.15,383.64 715.169,390.314 710.142,397.6L710.16,397.623C696.178,417.84 689.563,442.804 689.305,469.206L670.523,469.206Z" style="fill:url(#_Linear2);"/>
                </g>
                <g transform="matrix(6.29283e-17,1.0277,-0.844157,5.16897e-17,1426.14,-1347.66)">
                    <path d="M2041.99,1248.9L2041.99,1210.84C2041.99,1202.92 2036.71,1196.49 2030.2,1196.49C2023.69,1196.49 2018.41,1202.92 2018.41,1210.84L2018.41,1248.9C2018.41,1256.82 2023.69,1263.25 2030.2,1263.25C2036.71,1263.25 2041.99,1256.82 2041.99,1248.9Z" style="fill:rgb(25,38,96);"/>
                </g>
                <g transform="matrix(1.23753,0,0,1.23753,-453.191,146.443)">
                    <path d="M620.42,408.478C618.113,407.897 615.75,407.493 613.349,407.231C609.825,406.987 607.163,403.927 607.408,400.404C607.653,396.881 610.712,394.219 614.235,394.464C618.811,394.602 623.309,395.166 627.683,396.133C626.024,398.572 624.541,400.95 623.212,403.254C622.189,405.028 621.254,406.767 620.42,408.478Z" style="fill:url(#_Linear3);"/>
                </g>
            </g>
            <g transform="matrix(1.1753,0,0,1.1753,-2373.35,-705.694)">
                <path d="M2394.46,1128.28C2400.65,1135.96 2405.62,1143.09 2409.4,1149.64C2416.86,1162.58 2419.89,1173.74 2419.32,1182.96C2419.15,1200.68 2407.36,1215.64 2391.21,1220.59C2386,1222.19 2380.48,1219.25 2378.88,1214.04C2377.29,1208.84 2380.22,1203.31 2385.43,1201.71C2393.62,1199.21 2399.58,1191.58 2399.58,1182.58L2399.58,1182.25C2399.58,1182.25 2399.62,1181.69 2399.61,1181.73C2400,1175.54 2397.32,1168.22 2392.3,1159.51C2389.45,1154.57 2385.86,1149.29 2381.51,1143.69L2385.66,1138.06C2387.18,1136.27 2388.69,1134.48 2390.2,1132.69L2394.46,1128.28Z" style="fill:rgb(25,38,96);"/>
            </g>
        </g>
    </g>
    <defs>
        <linearGradient id="_Linear1" x1="0" y1="0" x2="1" y2="0" gradientUnits="userSpaceOnUse" gradientTransform="matrix(9.05728,-73.864,73.864,9.05728,1392.63,752.518)"><stop offset="0" style="stop-color:rgb(62,103,198);stop-opacity:1"/><stop offset="1" style="stop-color:rgb(254,55,101);stop-opacity:1"/></linearGradient>
        <linearGradient id="_Linear2" x1="0" y1="0" x2="1" y2="0" gradientUnits="userSpaceOnUse" gradientTransform="matrix(7.8059e-15,-127.48,127.48,7.8059e-15,679.651,467.767)"><stop offset="0" style="stop-color:rgb(25,38,96);stop-opacity:1"/><stop offset="0.2" style="stop-color:rgb(116,45,98);stop-opacity:1"/><stop offset="0.42" style="stop-color:rgb(210,52,100);stop-opacity:1"/><stop offset="1" style="stop-color:rgb(254,55,101);stop-opacity:1"/></linearGradient>
        <linearGradient id="_Linear3" x1="0" y1="0" x2="1" y2="0" gradientUnits="userSpaceOnUse" gradientTransform="matrix(7.8059e-15,-127.48,127.48,7.8059e-15,679.651,467.767)"><stop offset="0" style="stop-color:rgb(25,38,96);stop-opacity:1"/><stop offset="0.2" style="stop-color:rgb(116,45,98);stop-opacity:1"/><stop offset="0.42" style="stop-color:rgb(210,52,100);stop-opacity:1"/><stop offset="1" style="stop-color:rgb(254,55,101);stop-opacity:1"/></linearGradient>
    </defs>
</svg>
